<?xml version="1.0" encoding="UTF-8"?>
<svg width="93px" height="24px" viewBox="0 0 93 24" version="1.1" xmlns="http://www.w3.org/2000/svg" xmlns:xlink="http://www.w3.org/1999/xlink">
    <!-- Generator: Sketch 64 (93537) - https://sketch.com -->
    <title>CCTip Logo 全彩 - New</title>
    <desc>Created with Sketch.</desc>
    <defs>
        <linearGradient x1="6.52873839%" y1="50.0011171%" x2="99.9960434%" y2="50.0011171%" id="linearGradient-1">
            <stop stop-color="#1DFFD4" offset="0%"></stop>
            <stop stop-color="#2D64F6" offset="100%"></stop>
        </linearGradient>
        <linearGradient x1="5.61386635%" y1="50.3505345%" x2="99.8490469%" y2="49.5605434%" id="linearGradient-2">
            <stop stop-color="#5000FF" offset="0%"></stop>
            <stop stop-color="#2D64F6" offset="100%"></stop>
        </linearGradient>
    </defs>
    <g id="确认版（根据修改意见调整后）" stroke="none" stroke-width="1" fill="none" fill-rule="evenodd">
        <g id="官网首页菜单栏" transform="translate(-136.000000, -31.000000)">
            <g id="Header/black-text">
                <g id="Header-增加-App-下载">
                    <g id="CCTip-Logo-全彩---New" transform="translate(136.000000, 31.000000)">
                        <g>
                            <path d="M78.5574,7.0068 C77.6564,7.0068 76.9224,6.2738 76.9224,5.3718 C76.9224,4.4708 77.6564,3.7368 78.5574,3.7368 C79.4594,3.7368 80.1934,4.4708 80.1934,5.3718 C80.1934,6.2738 79.4594,7.0068 78.5574,7.0068 L78.5574,7.0068 Z M86.9494,10.8058 L85.0974,10.9488 L85.0974,16.7298 L86.9934,16.8738 C87.8524,16.8708 88.1764,16.7878 88.4724,16.6368 L88.5084,16.6178 C88.7784,16.4738 88.9804,16.2718 89.1244,15.9998 C89.2934,15.6838 89.3794,15.3548 89.3794,14.4338 L89.3794,13.1998 C89.3774,12.3358 89.2944,12.0108 89.1434,11.7138 L89.1244,11.6778 C88.9804,11.4078 88.7784,11.2058 88.5064,11.0608 C88.1914,10.8918 87.8634,10.8058 86.9494,10.8058 L86.9494,10.8058 Z M48.2394,19.6198 C46.4984,19.6198 45.5964,19.4538 44.6554,18.9638 C43.7964,18.5168 43.0994,17.8368 42.6394,16.9988 L42.6054,16.9368 C42.1364,16.0568 41.9694,15.1748 41.9654,13.5668 L41.9664,9.6168 C41.9814,8.0878 42.1574,7.2358 42.6394,6.3578 C43.0994,5.5208 43.7964,4.8408 44.6554,4.3928 L44.7204,4.3608 C45.6214,3.9038 46.5254,3.7408 48.1734,3.7368 L48.1814,3.7368 L51.5554,3.8828 C51.7264,3.8898 51.8604,4.0348 51.8534,4.2068 C51.8524,4.2168 51.8514,4.2258 51.8504,4.2348 L51.5784,6.2228 C51.5564,6.3758 51.4234,6.4908 51.2694,6.4908 L48.0434,6.4918 C46.8604,6.4998 46.4424,6.6698 46.0184,6.8908 C45.6564,7.0788 45.3854,7.3428 45.1924,7.6948 L45.1744,7.7288 C44.9604,8.1308 44.8644,8.5268 44.8614,9.8018 L44.8624,13.6928 C44.8714,14.8798 44.9714,15.2598 45.1924,15.6608 C45.3854,16.0148 45.6564,16.2778 46.0184,16.4668 L46.0534,16.4848 C46.4584,16.6898 46.8934,16.8598 48.0934,16.8648 L51.2694,16.8658 C51.4234,16.8658 51.5564,16.9818 51.5784,17.1348 L51.8504,19.1208 C51.8734,19.2908 51.7544,19.4478 51.5844,19.4718 C51.5754,19.4738 51.5644,19.4748 51.5534,19.4748 L48.2414,19.6198 L48.2394,19.6198 Z M59.4504,19.6198 C57.7094,19.6198 56.8074,19.4538 55.8674,18.9638 C55.0074,18.5168 54.3104,17.8368 53.8504,16.9988 L53.8174,16.9368 C53.3474,16.0568 53.1804,15.1748 53.1764,13.5668 L53.1774,9.6168 C53.1934,8.0878 53.3694,7.2358 53.8504,6.3578 C54.3104,5.5208 55.0074,4.8408 55.8674,4.3928 L55.9314,4.3608 C56.8324,3.9038 57.7364,3.7408 59.3854,3.7368 L59.3924,3.7368 L62.7664,3.8828 C62.9384,3.8898 63.0724,4.0348 63.0644,4.2068 C63.0644,4.2168 63.0634,4.2258 63.0624,4.2348 L62.7884,6.2228 C62.7684,6.3758 62.6354,6.4908 62.4804,6.4908 L59.2554,6.4918 C58.0724,6.4998 57.6544,6.6698 57.2304,6.8908 C56.8684,7.0788 56.5974,7.3428 56.4034,7.6948 L56.3854,7.7288 C56.1714,8.1308 56.0764,8.5268 56.0734,9.8018 L56.0744,13.6928 C56.0824,14.8798 56.1824,15.2598 56.4034,15.6608 C56.5974,16.0148 56.8684,16.2778 57.2304,16.4668 L57.2644,16.4848 C57.6694,16.6898 58.1044,16.8598 59.3054,16.8648 L62.4804,16.8658 C62.6354,16.8658 62.7684,16.9818 62.7884,17.1348 L63.0624,19.1208 C63.0734,19.2028 63.0514,19.2848 63.0014,19.3518 C62.9514,19.4178 62.8774,19.4608 62.7954,19.4718 C62.7864,19.4738 62.7764,19.4748 62.7654,19.4748 L59.4534,19.6198 L59.4504,19.6198 Z M71.1614,19.6588 L69.0594,19.6588 C68.8874,19.6588 68.7474,19.5198 68.7474,19.3478 L68.7474,6.4618 L64.8554,6.4618 C64.6834,6.4618 64.5434,6.3218 64.5434,6.1508 L64.5434,4.0488 C64.5434,3.8768 64.6834,3.7368 64.8554,3.7368 L75.2874,3.7368 C75.4594,3.7368 75.5994,3.8768 75.5994,4.0488 L75.5994,6.1508 C75.5994,6.3218 75.4594,6.4618 75.2874,6.4618 L71.4724,6.4618 L71.4724,19.3478 C71.4724,19.5198 71.3324,19.6588 71.1614,19.6588 L71.1614,19.6588 Z M79.6094,19.6588 L77.5064,19.6588 C77.3344,19.6588 77.1954,19.5198 77.1954,19.3478 L77.1954,8.4288 C77.1954,8.2568 77.3344,8.1168 77.5064,8.1168 L79.6094,8.1168 C79.7814,8.1168 79.9204,8.2568 79.9204,8.4288 L79.9204,19.3478 C79.9204,19.5198 79.7814,19.6588 79.6094,19.6588 L79.6094,19.6588 Z M84.7864,23.9998 L82.6844,23.9998 C82.5124,23.9998 82.3724,23.8608 82.3724,23.6888 L82.3724,8.4288 C82.3724,8.2568 82.5124,8.1168 82.6844,8.1168 L84.7864,8.1168 C84.9494,8.1168 85.0824,8.2418 85.0964,8.4018 L86.2334,8.2008 C86.9414,8.0758 87.6354,8.0638 88.2954,8.1648 C88.8554,8.2498 89.3174,8.4018 89.7904,8.6548 C90.5324,9.0518 91.1324,9.6528 91.5284,10.3938 C91.9434,11.1708 92.1054,11.9708 92.1054,13.2448 L92.1054,14.4338 C92.1054,15.7088 91.9434,16.5088 91.5284,17.2858 C91.1324,18.0268 90.5324,18.6278 89.7904,19.0248 C89.3174,19.2778 88.8554,19.4288 88.2954,19.5148 C87.6354,19.6148 86.9414,19.6038 86.2334,19.4788 L85.0974,19.2778 L85.0974,23.6888 C85.0974,23.8608 84.9574,23.9998 84.7864,23.9998 L84.7864,23.9998 Z" id="Fill-1" fill="#2B2C48"></path>
                            <path d="M23.439,0 C16.859,0 35.353,18.494 35.353,11.914 L35.353,11.914 L35.353,0 L23.439,0 Z" id="Fill-4" fill="#FFB100"></path>
                            <path d="M23.4387,0 C30.0187,0 35.3527,5.334 35.3527,11.914 C35.3527,18.494 30.0187,23.828 23.4387,23.828 L13.3577,23.828 C12.3457,23.828 11.5247,23.008 11.5247,21.995 L11.5247,11.914 C11.5247,5.334 16.8587,0 23.4387,0" id="Fill-7" fill="#2D64F6"></path>
                            <path d="M23.4387,7.332 C25.9697,7.332 28.0217,9.384 28.0217,11.914 C28.0217,14.444 25.9697,16.496 23.4387,16.496 C20.9077,16.496 18.8567,14.444 18.8567,11.914 C18.8567,9.384 20.9077,7.332 23.4387,7.332" id="Fill-9" fill="#FFFFFF"></path>
                            <path d="M3.115,6.33 L3.115,19.093 C3.115,19.926 3.201,20.228 3.364,20.532 L3.364,20.532 C3.526,20.837 3.766,21.076 4.07,21.239 L4.07,21.239 C4.375,21.403 4.676,21.488 5.51,21.488 L5.51,21.488 L18.455,21.488 C19.916,21.488 21.1,20.305 21.1,18.846 L21.1,18.846 C21.1,17.18 20.319,15.611 18.993,14.606 L18.993,14.606 L6.112,4.841 C5.787,4.595 5.39,4.462 4.982,4.462 L4.982,4.462 C3.951,4.462 3.115,5.299 3.115,6.33" id="Fill-12" fill="url(#linearGradient-1)"></path>
                            <path d="M0,14.377 L0,19.832 C0,21.22 0.144,21.724 0.416,22.232 L0.416,22.232 C0.688,22.738 1.085,23.137 1.593,23.408 L1.593,23.408 C2.101,23.68 2.605,23.824 3.992,23.824 L3.992,23.824 L18.102,23.824 C19.757,23.824 21.1,22.483 21.1,20.827 L21.1,20.827 C21.1,19.055 19.92,17.498 18.213,17.02 L18.213,17.02 L2.373,12.578 C2.209,12.531 2.039,12.508 1.868,12.508 L1.868,12.508 C0.837,12.508 0,13.345 0,14.377" id="Fill-15" fill="url(#linearGradient-2)"></path>
                            <path d="M2.3733,12.5781 L18.2133,17.0191 C19.9193,17.4981 21.0993,19.0551 21.0993,20.8271 C21.0993,22.4821 19.7573,23.8241 18.1023,23.8241 L3.9923,23.8241 C2.6043,23.8241 2.1013,23.6801 1.5933,23.4081 C1.0853,23.1371 0.6873,22.7381 0.4153,22.2311 C0.1443,21.7241 -0.0007,21.2201 -0.0007,19.8321 L-0.0007,14.3771 C-0.0007,13.3451 0.8363,12.5081 1.8683,12.5081 C2.0393,12.5081 2.2083,12.5311 2.3733,12.5781" id="Fill-18" fill="#2D64F6"></path>
                        </g>
                    </g>
                </g>
            </g>
        </g>
    </g>
</svg>